<svg width="128" height="27" viewBox="0 0 128 27" fill="none" xmlns="http://www.w3.org/2000/svg">
<line x1="2.62268e-08" y1="25.7" x2="128" y2="25.7" stroke="black" stroke-width="0.6"/>
<path d="M106.917 5.625H112.667C113.683 5.625 114.658 5.99375 115.377 6.65013C116.096 7.3065 116.5 8.19674 116.5 9.125V21.375C116.5 20.6788 116.197 20.0111 115.658 19.5188C115.119 19.0266 114.387 18.75 113.625 18.75H106.917V5.625Z" stroke="black" stroke-linecap="round" stroke-linejoin="round"/>
<path d="M126.083 5.625H120.333C119.317 5.625 118.342 5.99375 117.623 6.65013C116.904 7.3065 116.5 8.19674 116.5 9.125V21.375C116.5 20.6788 116.803 20.0111 117.342 19.5188C117.881 19.0266 118.613 18.75 119.375 18.75H126.083V5.625Z" stroke="black" stroke-linecap="round" stroke-linejoin="round"/>
<path d="M1.364 21L4.444 5.6H5.764L13.53 19.042L13.024 18.954L15.686 5.6H17.292L14.212 21H12.892L5.126 7.558L5.632 7.646L2.97 21H1.364ZM25.5525 21.132C24.0418 21.132 22.7512 20.868 21.6805 20.34C20.6098 19.7973 19.7958 19.0493 19.2385 18.096C18.6958 17.128 18.4245 16.006 18.4245 14.73C18.4245 13.4687 18.6372 12.2807 19.0625 11.166C19.4878 10.0513 20.1038 9.06867 20.9105 8.218C21.7318 7.35267 22.7145 6.678 23.8585 6.194C25.0025 5.71 26.2858 5.468 27.7085 5.468C29.2338 5.468 30.5245 5.73933 31.5805 6.282C32.6512 6.81 33.4578 7.558 34.0005 8.526C34.5578 9.47933 34.8365 10.594 34.8365 11.87C34.8365 13.1313 34.6238 14.3193 34.1985 15.434C33.7732 16.5487 33.1498 17.5387 32.3285 18.404C31.5218 19.2547 30.5465 19.922 29.4025 20.406C28.2585 20.89 26.9752 21.132 25.5525 21.132ZM25.7065 19.68C26.8505 19.68 27.8845 19.482 28.8085 19.086C29.7325 18.6753 30.5245 18.1107 31.1845 17.392C31.8445 16.6733 32.3505 15.852 32.7025 14.928C33.0545 13.9893 33.2305 12.992 33.2305 11.936C33.2305 10.9387 33.0105 10.066 32.5705 9.318C32.1452 8.57 31.5145 7.98333 30.6785 7.558C29.8425 7.13267 28.8012 6.92 27.5545 6.92C26.4105 6.92 25.3765 7.12533 24.4525 7.536C23.5285 7.932 22.7365 8.48933 22.0765 9.208C21.4312 9.92667 20.9252 10.7553 20.5585 11.694C20.2065 12.618 20.0305 13.608 20.0305 14.664C20.0305 15.6467 20.2432 16.5193 20.6685 17.282C21.1085 18.03 21.7465 18.6167 22.5825 19.042C23.4185 19.4673 24.4598 19.68 25.7065 19.68ZM42.4896 21.132C41.0816 21.132 39.9302 20.846 39.0356 20.274C38.1556 19.702 37.5542 18.91 37.2316 17.898C36.9089 16.886 36.8796 15.7347 37.1436 14.444L38.9036 5.6H40.5096L38.7496 14.444C38.5882 15.2067 38.5442 15.9107 38.6176 16.556C38.6909 17.2013 38.8816 17.7587 39.1896 18.228C39.5122 18.6973 39.9596 19.0567 40.5316 19.306C41.1036 19.5553 41.8076 19.68 42.6436 19.68C43.6996 19.68 44.5942 19.4893 45.3276 19.108C46.0609 18.712 46.6549 18.1327 47.1096 17.37C47.5789 16.6073 47.9309 15.6687 48.1656 14.554L49.9476 5.6H51.5316L49.7276 14.664C49.3169 16.776 48.5029 18.382 47.2856 19.482C46.0829 20.582 44.4842 21.132 42.4896 21.132ZM52.4994 21L55.5794 5.6H56.8994L61.5854 17.634L60.9034 17.612L70.1434 5.6H71.5734L68.4934 21H66.9314L69.5274 7.998L69.9454 8.042L61.4094 19.042H60.6394L56.2834 7.976L56.6354 8.042L54.0614 21H52.4994ZM75.7771 12.486H83.9171L83.6531 13.872H75.5131L75.7771 12.486ZM74.5231 19.592H83.7851L83.4991 21H72.6311L75.7111 5.6H86.2711L85.9851 7.008H77.0311L74.5231 19.592ZM86.4679 21L89.5479 5.6H90.8679L98.6339 19.042L98.1279 18.954L100.79 5.6H102.396L99.3159 21H97.9959L90.2299 7.558L90.7359 7.646L88.0739 21H86.4679Z" fill="black"/>
</svg>
